<svg width="10" height="10" viewBox="0 0 10 10" fill="none" xmlns="http://www.w3.org/2000/svg">
<path d="M4.99992 0.833344C2.69992 0.833344 0.833252 2.70001 0.833252 5.00001C0.833252 7.30001 2.69992 9.16668 4.99992 9.16668C7.29992 9.16668 9.16659 7.30001 9.16659 5.00001C9.16659 2.70001 7.29992 0.833344 4.99992 0.833344ZM4.99992 2.08334C5.69159 2.08334 6.24992 2.64168 6.24992 3.33334C6.24992 4.02501 5.69159 4.58334 4.99992 4.58334C4.30825 4.58334 3.74992 4.02501 3.74992 3.33334C3.74992 2.64168 4.30825 2.08334 4.99992 2.08334ZM4.99992 8.00001C4.50486 8.00001 4.0175 7.8775 3.58128 7.6434C3.14507 7.4093 2.77358 7.07089 2.49992 6.65834C2.51242 5.82918 4.16659 5.37501 4.99992 5.37501C5.82909 5.37501 7.48742 5.82918 7.49992 6.65834C7.22626 7.07089 6.85476 7.4093 6.41855 7.6434C5.98234 7.8775 5.49498 8.00001 4.99992 8.00001Z" />
</svg>
