<svg width="35" height="36" viewBox="0 0 35 36" fill="none" xmlns="http://www.w3.org/2000/svg">
<path d="M17.5 0C22.1413 0 26.5925 1.89642 29.8744 5.27208C33.1563 8.64773 35 13.2261 35 18C35 22.7739 33.1563 27.3523 29.8744 30.7279C26.5925 34.1036 22.1413 36 17.5 36C12.8587 36 8.40752 34.1036 5.12563 30.7279C1.84375 27.3523 0 22.7739 0 18C0 13.2261 1.84375 8.64773 5.12563 5.27208C8.40752 1.89642 12.8587 0 17.5 0V0ZM9.84375 16.875C9.55367 16.875 9.27547 16.9935 9.07035 17.2045C8.86523 17.4155 8.75 17.7016 8.75 18C8.75 18.2984 8.86523 18.5845 9.07035 18.7955C9.27547 19.0065 9.55367 19.125 9.84375 19.125H22.5159L17.8194 23.9535C17.7177 24.0581 17.637 24.1823 17.582 24.3189C17.5269 24.4556 17.4986 24.6021 17.4986 24.75C17.4986 24.8979 17.5269 25.0444 17.582 25.1811C17.637 25.3177 17.7177 25.4419 17.8194 25.5465C17.9211 25.6511 18.0418 25.7341 18.1747 25.7907C18.3075 25.8473 18.4499 25.8764 18.5938 25.8764C18.7376 25.8764 18.88 25.8473 19.0128 25.7907C19.1457 25.7341 19.2664 25.6511 19.3681 25.5465L25.9306 18.7965C26.0325 18.692 26.1133 18.5679 26.1684 18.4312C26.2236 18.2945 26.252 18.148 26.252 18C26.252 17.852 26.2236 17.7055 26.1684 17.5688C26.1133 17.4321 26.0325 17.308 25.9306 17.2035L19.3681 10.4535C19.2664 10.3489 19.1457 10.2659 19.0128 10.2093C18.88 10.1527 18.7376 10.1236 18.5938 10.1236C18.4499 10.1236 18.3075 10.1527 18.1747 10.2093C18.0418 10.2659 17.9211 10.3489 17.8194 10.4535C17.7177 10.5581 17.637 10.6823 17.582 10.8189C17.5269 10.9556 17.4986 11.1021 17.4986 11.25C17.4986 11.3979 17.5269 11.5444 17.582 11.6811C17.637 11.8177 17.7177 11.9419 17.8194 12.0465L22.5159 16.875H9.84375Z" fill="white"/>
</svg>
