<svg width="10" height="22" viewBox="0 0 10 22" fill="none" xmlns="http://www.w3.org/2000/svg">
<path d="M8.34077 21.9999C8.12731 22.0007 7.9164 21.9489 7.72354 21.8483C7.53068 21.7477 7.36076 21.6008 7.22628 21.4185L0.325041 11.9908C0.114887 11.7097 0 11.357 0 10.9931C0 10.6291 0.114887 10.2765 0.325041 9.99531L7.46918 0.567629C7.71171 0.246747 8.06022 0.0449563 8.43804 0.00664887C8.81586 -0.0316585 9.19204 0.0966553 9.48383 0.363362C9.77562 0.630069 9.95912 1.01332 9.99395 1.42881C10.0288 1.8443 9.91211 2.25799 9.66958 2.57887L3.28272 11.0009L9.45526 19.423C9.62998 19.6536 9.74096 19.9345 9.77508 20.2323C9.8092 20.5302 9.76503 20.8325 9.64779 21.1036C9.53054 21.3747 9.34514 21.6032 9.11351 21.762C8.88188 21.9208 8.61372 22.0034 8.34077 21.9999Z" fill="white"/>
</svg>
