<svg width="18" height="18" viewBox="0 0 10 10" fill="none" xmlns="http://www.w3.org/2000/svg">
<path d="M5 6.25C5.69036 6.25 6.25 5.69036 6.25 5C6.25 4.30964 5.69036 3.75 5 3.75C4.30964 3.75 3.75 4.30964 3.75 5C3.75 5.69036 4.30964 6.25 5 6.25Z" fill="#BABABA"/>
<path d="M9.66862 4.89375C9.30107 3.94302 8.66299 3.12082 7.83324 2.52878C7.0035 1.93674 6.01846 1.6008 4.99987 1.5625C3.98128 1.6008 2.99624 1.93674 2.16649 2.52878C1.33675 3.12082 0.698667 3.94302 0.331117 4.89375C0.306294 4.96241 0.306294 5.03759 0.331117 5.10625C0.698667 6.05698 1.33675 6.87918 2.16649 7.47122C2.99624 8.06326 3.98128 8.3992 4.99987 8.4375C6.01846 8.3992 7.0035 8.06326 7.83324 7.47122C8.66299 6.87918 9.30107 6.05698 9.66862 5.10625C9.69344 5.03759 9.69344 4.96241 9.66862 4.89375ZM4.99987 7.03125C4.59812 7.03125 4.2054 6.91212 3.87137 6.68892C3.53733 6.46573 3.27698 6.14849 3.12324 5.77733C2.9695 5.40616 2.92927 4.99775 3.00765 4.60372C3.08602 4.2097 3.27948 3.84776 3.56356 3.56369C3.84763 3.27961 4.20957 3.08616 4.60359 3.00778C4.99761 2.9294 5.40603 2.96963 5.77719 3.12337C6.14836 3.27711 6.46559 3.53746 6.68879 3.8715C6.91199 4.20554 7.03112 4.59826 7.03112 5C7.03029 5.53847 6.81602 6.05464 6.43527 6.4354C6.05451 6.81615 5.53833 7.03042 4.99987 7.03125Z" fill="#BABABA"/>
</svg>
