<svg width="22" height="20" viewBox="0 0 22 20" fill="none" xmlns="http://www.w3.org/2000/svg">
<path d="M19.4853 9.13508C19.9198 9.65175 19.9198 10.3492 19.4853 10.8651C18.1167 12.4892 14.8332 15.8334 10.9997 15.8334C7.16623 15.8334 3.88273 12.4892 2.51414 10.8651C2.30274 10.6177 2.18799 10.3133 2.18799 10.0001C2.18799 9.68682 2.30274 9.38247 2.51414 9.13508C3.88273 7.51091 7.16623 4.16675 10.9997 4.16675C14.8332 4.16675 18.1167 7.51091 19.4853 9.13508V9.13508Z" stroke="white" stroke-width="0.833333" stroke-linecap="round" stroke-linejoin="round"/>
<path d="M11 12.5C12.5188 12.5 13.75 11.3807 13.75 10C13.75 8.61929 12.5188 7.5 11 7.5C9.48122 7.5 8.25 8.61929 8.25 10C8.25 11.3807 9.48122 12.5 11 12.5Z" stroke="white" stroke-width="0.833333" stroke-linecap="round" stroke-linejoin="round"/>
</svg>
