<svg width="24" height="17" viewBox="0 0 24 17" fill="none" xmlns="http://www.w3.org/2000/svg">
<path d="M20.2598 2.70001C19.4198 1.30001 17.8798 0.600006 16.1998 0.600006H7.79984C6.11984 0.600006 4.57984 1.30001 3.73984 2.70001C0.519838 7.60001 -0.180162 15.02 2.05984 16.56C4.29984 18.1 9.33984 11.38 11.9998 11.38C14.6598 11.38 19.5598 18.1 21.9398 16.56C24.1798 15.02 23.4798 7.60001 20.2598 2.70001V2.70001ZM9.19984 7.60001H7.79984V9.00001H6.39984V7.60001H4.99984V6.20001H6.39984V4.80001H7.79984V6.20001H9.19984V7.60001ZM16.7598 8.30001C16.7598 9.00001 16.1998 9.56001 15.4998 9.56001C14.7998 9.56001 14.2398 9.00001 14.2398 8.30001C14.2398 7.60001 14.7998 7.04001 15.4998 7.04001C16.1998 7.04001 16.7598 7.60001 16.7598 8.30001ZM19.4198 5.50001C19.4198 6.20001 18.8598 6.76001 18.1598 6.76001C17.4598 6.76001 16.8998 6.20001 16.8998 5.50001C16.8998 4.80001 17.4598 4.24001 18.1598 4.24001C18.8598 4.24001 19.4198 4.80001 19.4198 5.50001Z" fill="#8F8F9C"/>
</svg>
