<svg width="28" height="28" viewBox="0 0 28 28" fill="none" xmlns="http://www.w3.org/2000/svg">
<path d="M14.6589 7.46485H13.3436C13.2233 7.46485 13.1249 7.56328 13.1249 7.6836V15.2113C13.1249 15.2824 13.1577 15.3481 13.2151 15.3891L17.735 18.6895C17.8335 18.7605 17.9702 18.7414 18.0413 18.643L18.8233 17.5766C18.8971 17.4754 18.8753 17.3387 18.7768 17.2703L14.8776 14.4512V7.6836C14.8776 7.56328 14.7792 7.46485 14.6589 7.46485ZM20.669 9.5211L24.9565 10.5684C25.0932 10.6012 25.2272 10.4973 25.2272 10.3578L25.2491 5.9418C25.2491 5.7586 25.0385 5.65469 24.8964 5.76953L20.587 9.13555C20.5544 9.16075 20.5296 9.19462 20.5154 9.23328C20.5013 9.27194 20.4983 9.31382 20.5069 9.3541C20.5154 9.39437 20.5352 9.43141 20.5639 9.46095C20.5926 9.4905 20.629 9.51134 20.669 9.5211ZM25.2546 17.7543L23.7042 17.2211C23.6501 17.2026 23.591 17.2059 23.5393 17.2305C23.4877 17.255 23.4478 17.2987 23.428 17.3523C23.376 17.4918 23.3214 17.6285 23.2639 17.7652C22.7772 18.9164 22.08 19.9527 21.1885 20.8414C20.307 21.7257 19.2623 22.4305 18.1124 22.9168C16.9211 23.4205 15.6405 23.679 14.3471 23.677C13.0401 23.677 11.7741 23.4227 10.5819 22.9168C9.43194 22.4305 8.38724 21.7257 7.50573 20.8414C6.61706 19.9527 5.9198 18.9164 5.43034 17.7652C4.92945 16.5733 4.67282 15.2929 4.67566 14C4.67566 12.693 4.92995 11.4242 5.43581 10.232C5.92253 9.08086 6.6198 8.04453 7.5112 7.15586C8.39271 6.27162 9.43741 5.5668 10.5874 5.08047C11.7741 4.57461 13.0428 4.32032 14.3499 4.32032C15.6569 4.32032 16.9229 4.57461 18.1151 5.08047C19.2651 5.5668 20.3098 6.27162 21.1913 7.15586C21.4702 7.4375 21.7327 7.73008 21.9733 8.03907L23.6085 6.75938C21.4565 4.0086 18.1069 2.23946 14.3444 2.24219C7.79284 2.24493 2.53191 7.56602 2.59753 14.1203C2.66316 20.5598 7.89948 25.7578 14.3499 25.7578C19.4221 25.7578 23.7425 22.5422 25.3885 18.0387C25.4296 17.9238 25.3694 17.7953 25.2546 17.7543Z" fill="#8F8F9C"/>
</svg>
