<svg width="22" height="22" viewBox="0 0 22 22" fill="none" xmlns="http://www.w3.org/2000/svg">
<path d="M18.6074 11.4662C18.9597 10.9893 19.1547 10.4049 19.1547 9.79689C19.1547 8.83224 18.6283 7.91915 17.7811 7.40997C17.5629 7.27891 17.3146 7.20993 17.0617 7.21017H12.0326L12.1584 4.56974C12.1878 3.93165 11.9676 3.32579 11.5397 2.86388C11.3298 2.63621 11.0765 2.45506 10.7955 2.33164C10.5144 2.20821 10.2117 2.14514 9.90598 2.1463C8.81543 2.1463 7.85071 2.89826 7.56129 3.97462L5.75977 10.6563H5.75348V19.8516H15.6587C15.8516 19.8516 16.0404 19.8129 16.2144 19.7356C17.2127 19.2994 17.8566 18.3004 17.8566 17.1918C17.8566 16.9211 17.8188 16.6547 17.7433 16.3969C18.0956 15.9199 18.2907 15.3356 18.2907 14.7276C18.2907 14.4568 18.2529 14.1904 18.1774 13.9326C18.5298 13.4557 18.7248 12.8713 18.7248 12.2633C18.7206 11.9926 18.6829 11.724 18.6074 11.4662ZM2.37695 11.3438V19.1641C2.37695 19.5443 2.67686 19.8516 3.04806 19.8516H4.41126V10.6563H3.04806C2.67686 10.6563 2.37695 10.9635 2.37695 11.3438Z" fill="white" fill-opacity="0.66"/>
</svg>
