<svg width="26" height="22" viewBox="0 0 26 22" fill="none" xmlns="http://www.w3.org/2000/svg">
<ellipse cx="12.9154" cy="10.7003" rx="12.9154" ry="10.7003" fill="white"/>
<path d="M17.7215 10.5095L10.3984 6.93779C10.2996 6.89314 10.191 6.8733 10.0823 6.88008C9.97365 6.88686 9.86845 6.92005 9.7763 6.97661C9.68414 7.03318 9.60796 7.11133 9.55467 7.20395C9.50139 7.29657 9.4727 7.40072 9.47121 7.50692V14.6472C9.47029 14.7562 9.49821 14.8636 9.55228 14.959C9.60635 15.0545 9.68473 15.1347 9.77986 15.1919C9.87499 15.2491 9.98364 15.2814 10.0953 15.2857C10.207 15.29 10.3179 15.2661 10.4173 15.2164L17.7215 11.6447C17.8297 11.5917 17.9207 11.5104 17.9842 11.4099C18.0478 11.3094 18.0815 11.1936 18.0815 11.0755C18.0815 10.9574 18.0478 10.8417 17.9842 10.7412C17.9207 10.6407 17.8297 10.5594 17.7215 10.5064V10.5095Z" fill="#EF9636"/>
</svg>
