<svg width="20" height="20" viewBox="0 0 10 10" fill="none" xmlns="http://www.w3.org/2000/svg">
<path d="M5 0.833374C4.58796 0.833374 4.18516 0.955559 3.84256 1.18448C3.49996 1.4134 3.23293 1.73877 3.07525 2.11945C2.91757 2.50013 2.87631 2.91902 2.9567 3.32315C3.03708 3.72727 3.2355 4.09849 3.52686 4.38985C3.81822 4.68121 4.18943 4.87962 4.59356 4.96001C4.99769 5.0404 5.41658 4.99914 5.79726 4.84146C6.17794 4.68377 6.50331 4.41675 6.73223 4.07415C6.96115 3.73154 7.08333 3.32875 7.08333 2.91671C7.08333 2.36417 6.86384 1.83427 6.47314 1.44357C6.08244 1.05287 5.55253 0.833374 5 0.833374V0.833374ZM5 4.16671C4.75277 4.16671 4.5111 4.0934 4.30554 3.95604C4.09998 3.81869 3.93976 3.62347 3.84515 3.39506C3.75054 3.16665 3.72579 2.91532 3.77402 2.67284C3.82225 2.43037 3.9413 2.20764 4.11612 2.03282C4.29093 1.85801 4.51366 1.73896 4.75614 1.69073C4.99861 1.64249 5.24995 1.66725 5.47835 1.76186C5.70676 1.85647 5.90199 2.01668 6.03934 2.22224C6.17669 2.42781 6.25 2.66948 6.25 2.91671C6.25 3.24823 6.1183 3.56617 5.88388 3.80059C5.64946 4.03501 5.33152 4.16671 5 4.16671V4.16671ZM8.75 8.75004V8.33337C8.75 7.55983 8.44271 6.81796 7.89573 6.27098C7.34875 5.724 6.60688 5.41671 5.83333 5.41671H4.16667C3.39312 5.41671 2.65125 5.724 2.10427 6.27098C1.55729 6.81796 1.25 7.55983 1.25 8.33337V8.75004H2.08333V8.33337C2.08333 7.78084 2.30283 7.25094 2.69353 6.86023C3.08423 6.46953 3.61413 6.25004 4.16667 6.25004H5.83333C6.38587 6.25004 6.91577 6.46953 7.30647 6.86023C7.69717 7.25094 7.91667 7.78084 7.91667 8.33337V8.75004H8.75Z" fill="white"/>
</svg>
