<svg width="28" height="28" viewBox="0 0 28 28" fill="none" xmlns="http://www.w3.org/2000/svg">
<g clip-path="url(#clip0)">
<g clip-path="url(#clip1)">
<path d="M22.4747 18.8797C21.9589 17.6579 21.2103 16.5481 20.2708 15.6121C19.3341 14.6734 18.2244 13.925 17.0032 13.4082C16.9923 13.4027 16.9813 13.4 16.9704 13.3945C18.6739 12.1641 19.7813 10.1598 19.7813 7.89844C19.7813 4.15234 16.7462 1.11719 13.0001 1.11719C9.25397 1.11719 6.21882 4.15234 6.21882 7.89844C6.21882 10.1598 7.32624 12.1641 9.02976 13.3973C9.01882 13.4027 9.00788 13.4055 8.99694 13.4109C7.77194 13.9277 6.67272 14.6688 5.72937 15.6148C4.79068 16.5516 4.04227 17.6612 3.52546 18.8824C3.01775 20.078 2.74393 21.3599 2.71882 22.6586C2.71809 22.6878 2.72321 22.7168 2.73387 22.744C2.74454 22.7712 2.76054 22.7959 2.78092 22.8168C2.80131 22.8377 2.82567 22.8543 2.85257 22.8657C2.87948 22.877 2.90838 22.8828 2.93757 22.8828H4.57819C4.69851 22.8828 4.79421 22.7871 4.79694 22.6695C4.85163 20.5586 5.69929 18.5816 7.19772 17.0832C8.74812 15.5328 10.8071 14.6797 13.0001 14.6797C15.193 14.6797 17.252 15.5328 18.8024 17.0832C20.3008 18.5816 21.1485 20.5586 21.2032 22.6695C21.2059 22.7898 21.3016 22.8828 21.4219 22.8828H23.0626C23.0918 22.8828 23.1207 22.877 23.1476 22.8657C23.1745 22.8543 23.1988 22.8377 23.2192 22.8168C23.2396 22.7959 23.2556 22.7712 23.2663 22.744C23.2769 22.7168 23.282 22.6878 23.2813 22.6586C23.254 21.3516 22.9833 20.0801 22.4747 18.8797ZM13.0001 12.6016C11.745 12.6016 10.5637 12.1121 9.67507 11.2234C8.7864 10.3348 8.29694 9.15352 8.29694 7.89844C8.29694 6.64336 8.7864 5.46211 9.67507 4.57344C10.5637 3.68477 11.745 3.19531 13.0001 3.19531C14.2551 3.19531 15.4364 3.68477 16.3251 4.57344C17.2137 5.46211 17.7032 6.64336 17.7032 7.89844C17.7032 9.15352 17.2137 10.3348 16.3251 11.2234C15.4364 12.1121 14.2551 12.6016 13.0001 12.6016Z" fill="#8F8F9C"/>
</g>
</g>
<defs>
<clipPath id="clip0">
<rect width="28" height="28" fill="white"/>
</clipPath>
<clipPath id="clip1">
<rect width="28" height="28" fill="white" transform="translate(-4)"/>
</clipPath>
</defs>
</svg>
