<svg width="28" height="28" viewBox="0 0 19 19" fill="none" xmlns="http://www.w3.org/2000/svg">
<path d="M16.3333 0.333344H2.33333C1.71449 0.333344 1.121 0.579176 0.683417 1.01676C0.245833 1.45435 0 2.04784 0 2.66668V16.6667C0 17.2855 0.245833 17.879 0.683417 18.3166C1.121 18.7542 1.71449 19 2.33333 19H16.3333C16.9522 19 17.5457 18.7542 17.9832 18.3166C18.4208 17.879 18.6667 17.2855 18.6667 16.6667V2.66668C18.6667 2.04784 18.4208 1.45435 17.9832 1.01676C17.5457 0.579176 16.9522 0.333344 16.3333 0.333344ZM5.83333 14.3333V5.00001L14 9.66668L5.83333 14.3333Z" fill="#8F8F9C"/>
</svg>
