<svg width="23" height="21" viewBox="0 0 23 21" fill="none" xmlns="http://www.w3.org/2000/svg">
<path d="M11.5966 13.125C13.0791 13.125 14.281 11.9497 14.281 10.5C14.281 9.05025 13.0791 7.875 11.5966 7.875C10.114 7.875 8.91211 9.05025 8.91211 10.5C8.91211 11.9497 10.114 13.125 11.5966 13.125Z" fill="#5A5D67"/>
<path d="M21.6221 10.2769C20.8328 8.28033 19.4624 6.55372 17.6805 5.31043C15.8986 4.06715 13.7832 3.36169 11.5957 3.28125C9.40821 3.36169 7.29278 4.06715 5.51085 5.31043C3.72893 6.55372 2.35861 8.28033 1.56928 10.2769C1.51597 10.4211 1.51597 10.5789 1.56928 10.7231C2.35861 12.7197 3.72893 14.4463 5.51085 15.6896C7.29278 16.9329 9.40821 17.6383 11.5957 17.7188C13.7832 17.6383 15.8986 16.9329 17.6805 15.6896C19.4624 14.4463 20.8328 12.7197 21.6221 10.7231C21.6754 10.5789 21.6754 10.4211 21.6221 10.2769ZM11.5957 14.7656C10.7329 14.7656 9.88953 14.5155 9.17216 14.0467C8.4548 13.578 7.89568 12.9118 7.56551 12.1324C7.23535 11.3529 7.14896 10.4953 7.31728 9.66782C7.4856 8.84037 7.90106 8.08031 8.51113 7.48375C9.12119 6.88719 9.89847 6.48093 10.7447 6.31634C11.5908 6.15175 12.4679 6.23622 13.265 6.55908C14.0621 6.88193 14.7434 7.42867 15.2227 8.13015C15.7021 8.83162 15.9579 9.65634 15.9579 10.5C15.9561 11.6308 15.496 12.7148 14.6783 13.5143C13.8606 14.3139 12.7521 14.7639 11.5957 14.7656Z" fill="white" fill-opacity="0.66"/>
</svg>
